{
  "accessors": [
    {
      "bufferView": 2,
      "componentType": 5126,
      "count": 65532,
      "max": [
        53.59772491455078,
        42.53615188598633,
        -15.65845012664795
      ],
      "min": [
        -38.108524322509766,
        -43.09709930419922,
        -30.883861541748047
      ],
      "type": "VEC3"
    },
    {
      "bufferView": 2,
      "byteOffset": 786384,
      "componentType": 5126,
      "count": 65532,
      "max": [
        0.9999711513519287,
        0.9999882578849792,
        0.9999973773956299
      ],
      "min": [
        -0.9992233514785767,
        -0.9999760985374451,
        -0.9982846975326538
      ],
      "type": "VEC3"
    },
    {
      "bufferView": 1,
      "componentType": 5126,
      "count": 65532,
      "max": [
        0.9991078972816467,
        0.9990654587745667
      ],
      "min": [
        0.0031587076373398304,
        0.01093995850533247
      ],
      "type": "VEC2"
    },
    {
      "bufferView": 0,
      "componentType": 5125,
      "count": 306990,
      "type": "SCALAR"
    },
    {
      "bufferView": 2,
      "byteOffset": 1572768,
      "componentType": 5126,
      "count": 65532,
      "max": [
        53.44781494140625,
        40.48387908935547,
        -15.689682006835938
      ],
      "min": [
        -40.5823974609375,
        -43.1786994934082,
        -30.567176818847656
      ],
      "type": "VEC3"
    },
    {
      "bufferView": 2,
      "byteOffset": 2359152,
      "componentType": 5126,
      "count": 65532,
      "max": [
        0.9999547600746155,
        0.9998292922973633,
        0.9999996423721313
      ],
      "min": [
        -0.9999753832817078,
        -0.9992679357528687,
        -0.9844270944595337
      ],
      "type": "VEC3"
    },
    {
      "bufferView": 1,
      "byteOffset": 524256,
      "componentType": 5126,
      "count": 65532,
      "max": [
        0.9992044568061829,
        0.9992024302482605
      ],
      "min": [
        0.0007920973002910614,
        0.0007920966600067914
      ],
      "type": "VEC2"
    },
    {
      "bufferView": 0,
      "byteOffset": 1227960,
      "componentType": 5125,
      "count": 286788,
      "type": "SCALAR"
    },
    {
      "bufferView": 2,
      "byteOffset": 3145536,
      "componentType": 5126,
      "count": 65532,
      "max": [
        54.221920013427734,
        42.074554443359375,
        -16.43363380432129
      ],
      "min": [
        -39.956790924072266,
        -39.15713882446289,
        -31.3812255859375
      ],
      "type": "VEC3"
    },
    {
      "bufferView": 2,
      "byteOffset": 3931920,
      "componentType": 5126,
      "count": 65532,
      "max": [
        0.9998728632926941,
        0.9998494982719421,
        1.0
      ],
      "min": [
        -0.999922513961792,
        -0.9996791481971741,
        -0.9774643182754517
      ],
      "type": "VEC3"
    },
    {
      "bufferView": 1,
      "byteOffset": 1048512,
      "componentType": 5126,
      "count": 65532,
      "max": [
        0.9991462826728821,
        0.9992040991783142
      ],
      "min": [
        0.0007920954376459122,
        0.0007920966600067914
      ],
      "type": "VEC2"
    },
    {
      "bufferView": 0,
      "byteOffset": 2375112,
      "componentType": 5125,
      "count": 285267,
      "type": "SCALAR"
    },
    {
      "bufferView": 2,
      "byteOffset": 4718304,
      "componentType": 5126,
      "count": 65532,
      "max": [
        56.05540084838867,
        42.753421783447266,
        -16.31123924255371
      ],
      "min": [
        -40.37664794921875,
        -43.3525276184082,
        -30.950191497802734
      ],
      "type": "VEC3"
    },
    {
      "bufferView": 2,
      "byteOffset": 5504688,
      "componentType": 5126,
      "count": 65532,
      "max": [
        0.9997768402099609,
        0.9997997879981995,
        1.0
      ],
      "min": [
        -0.9992884397506714,
        -0.9999887347221375,
        -0.999593198299408
      ],
      "type": "VEC3"
    },
    {
      "bufferView": 1,
      "byteOffset": 1572768,
      "componentType": 5126,
      "count": 65532,
      "max": [
        0.9992001056671143,
        0.9990404844284058
      ],
      "min": [
        0.0007920966600067914,
        0.0007920966600067914
      ],
      "type": "VEC2"
    },
    {
      "bufferView": 0,
      "byteOffset": 3516180,
      "componentType": 5125,
      "count": 282420,
      "type": "SCALAR"
    },
    {
      "bufferView": 2,
      "byteOffset": 6291072,
      "componentType": 5126,
      "count": 65532,
      "max": [
        55.35832214355469,
        45.42979431152344,
        -16.698945999145508
      ],
      "min": [
        -34.810726165771484,
        -37.44727325439453,
        -31.19847869873047
      ],
      "type": "VEC3"
    },
    {
      "bufferView": 2,
      "byteOffset": 7077456,
      "componentType": 5126,
      "count": 65532,
      "max": [
        0.999353289604187,
        0.9999591112136841,
        0.9999974370002747
      ],
      "min": [
        -0.9997742772102356,
        -0.9997341632843018,
        -0.9980316758155823
      ],
      "type": "VEC3"
    },
    {
      "bufferView": 1,
      "byteOffset": 2097024,
      "componentType": 5126,
      "count": 65532,
      "max": [
        0.9992036819458008,
        0.9992043375968933
      ],
      "min": [
        0.0007920973002910614,
        0.0007920966600067914
      ],
      "type": "VEC2"
    },
    {
      "bufferView": 0,
      "byteOffset": 4645860,
      "componentType": 5125,
      "count": 275067,
      "type": "SCALAR"
    },
    {
      "bufferView": 2,
      "byteOffset": 7863840,
      "componentType": 5126,
      "count": 65532,
      "max": [
        56.0946159362793,
        53.076866149902344,
        -16.232030868530273
      ],
      "min": [
        -46.115379333496094,
        -50.78437805175781,
        -32.46341323852539
      ],
      "type": "VEC3"
    },
    {
      "bufferView": 2,
      "byteOffset": 8650224,
      "componentType": 5126,
      "count": 65532,
      "max": [
        0.9999439120292664,
        0.999929666519165,
        0.9999998211860657
      ],
      "min": [
        -0.9990901350975037,
        -0.9987159967422485,
        -0.999971866607666
      ],
      "type": "VEC3"
    },
    {
      "bufferView": 1,
      "byteOffset": 2621280,
      "componentType": 5126,
      "count": 65532,
      "max": [
        0.9991077780723572,
        0.9992045760154724
      ],
      "min": [
        0.0007920966600067914,
        0.0007920966600067914
      ],
      "type": "VEC2"
    },
    {
      "bufferView": 0,
      "byteOffset": 5746128,
      "componentType": 5125,
      "count": 282192,
      "type": "SCALAR"
    },
    {
      "bufferView": 2,
      "byteOffset": 9436608,
      "componentType": 5126,
      "count": 65533,
      "max": [
        37.4621696472168,
        52.456947326660156,
        -15.684147834777832
      ],
      "min": [
        -52.42902374267578,
        -53.64613342285156,
        -32.8856201171875
      ],
      "type": "VEC3"
    },
    {
      "bufferView": 2,
      "byteOffset": 10223004,
      "componentType": 5126,
      "count": 65533,
      "max": [
        0.9999349117279053,
        0.9995778203010559,
        0.9999961853027344
      ],
      "min": [
        -0.9997548460960388,
        -0.999747097492218,
        -0.9969537258148193
      ],
      "type": "VEC3"
    },
    {
      "bufferView": 1,
      "byteOffset": 3145536,
      "componentType": 5126,
      "count": 65533,
      "max": [
        0.9992012977600098,
        0.9991511702537537
      ],
      "min": [
        0.0007920973002910614,
        0.0007920966600067914
      ],
      "type": "VEC2"
    },
    {
      "bufferView": 0,
      "byteOffset": 6874896,
      "componentType": 5125,
      "count": 287061,
      "type": "SCALAR"
    },
    {
      "bufferView": 2,
      "byteOffset": 11009400,
      "componentType": 5126,
      "count": 65532,
      "max": [
        35.64339065551758,
        52.73483657836914,
        -15.56386661529541
      ],
      "min": [
        -56.408329010009766,
        -51.76569747924805,
        -32.882816314697266
      ],
      "type": "VEC3"
    },
    {
      "bufferView": 2,
      "byteOffset": 11795784,
      "componentType": 5126,
      "count": 65532,
      "max": [
        0.9999349117279053,
        0.9996376633644104,
        0.9999995231628418
      ],
      "min": [
        -0.9998534917831421,
        -0.9999665021896362,
        -0.9904670119285583
      ],
      "type": "VEC3"
    },
    {
      "bufferView": 1,
      "byteOffset": 3669800,
      "componentType": 5126,
      "count": 65532,
      "max": [
        0.9992026686668396,
        0.9991072416305542
      ],
      "min": [
        0.0007920966600067914,
        0.0007920966600067914
      ],
      "type": "VEC2"
    },
    {
      "bufferView": 0,
      "byteOffset": 8023140,
      "componentType": 5125,
      "count": 295158,
      "type": "SCALAR"
    },
    {
      "bufferView": 2,
      "byteOffset": 12582168,
      "componentType": 5126,
      "count": 65532,
      "max": [
        36.80829620361328,
        52.86653137207031,
        -15.58210277557373
      ],
      "min": [
        -57.07738494873047,
        -53.6087532043457,
        -32.8856201171875
      ],
      "type": "VEC3"
    },
    {
      "bufferView": 2,
      "byteOffset": 13368552,
      "componentType": 5126,
      "count": 65532,
      "max": [
        0.9999348521232605,
        0.9999340772628784,
        0.999999463558197
      ],
      "min": [
        -0.9994516968727112,
        -0.9999665021896362,
        -0.9981235265731812
      ],
      "type": "VEC3"
    },
    {
      "bufferView": 1,
      "byteOffset": 4194056,
      "componentType": 5126,
      "count": 65532,
      "max": [
        0.9992020130157471,
        0.9991962909698486
      ],
      "min": [
        0.0007920973002910614,
        0.002695787465199828
      ],
      "type": "VEC2"
    },
    {
      "bufferView": 0,
      "byteOffset": 9203772,
      "componentType": 5125,
      "count": 255288,
      "type": "SCALAR"
    },
    {
      "bufferView": 2,
      "byteOffset": 14154936,
      "componentType": 5126,
      "count": 65532,
      "max": [
        41.095458984375,
        52.41426086425781,
        -16.243412017822266
      ],
      "min": [
        -42.39238357543945,
        -47.53498840332031,
        -31.088764190673828
      ],
      "type": "VEC3"
    },
    {
      "bufferView": 2,
      "byteOffset": 14941320,
      "componentType": 5126,
      "count": 65532,
      "max": [
        0.9999573826789856,
        0.999600887298584,
        0.9999968409538269
      ],
      "min": [
        -0.9997337460517883,
        -0.9996694922447205,
        -0.9998624324798584
      ],
      "type": "VEC3"
    },
    {
      "bufferView": 1,
      "byteOffset": 4718312,
      "componentType": 5126,
      "count": 65532,
      "max": [
        0.9992028474807739,
        0.9992056488990784
      ],
      "min": [
        0.0007920973002910614,
        0.0007920966600067914
      ],
      "type": "VEC2"
    },
    {
      "bufferView": 0,
      "byteOffset": 10224924,
      "componentType": 5125,
      "count": 269427,
      "type": "SCALAR"
    },
    {
      "bufferView": 2,
      "byteOffset": 15727704,
      "componentType": 5126,
      "count": 45402,
      "max": [
        52.70851516723633,
        51.7219123840332,
        -16.265018463134766
      ],
      "min": [
        -38.06034851074219,
        -46.88009262084961,
        -30.72231674194336
      ],
      "type": "VEC3"
    },
    {
      "bufferView": 2,
      "byteOffset": 16272528,
      "componentType": 5126,
      "count": 45402,
      "max": [
        0.9999105334281921,
        0.9995441436767578,
        0.9999995827674866
      ],
      "min": [
        -0.9998965859413147,
        -0.9980266094207764,
        -0.999298632144928
      ],
      "type": "VEC3"
    },
    {
      "bufferView": 1,
      "byteOffset": 5242568,
      "componentType": 5126,
      "count": 45402,
      "max": [
        0.9992066621780396,
        0.9951311349868774
      ],
      "min": [
        0.0007920966600067914,
        0.0007920966600067914
      ],
      "type": "VEC2"
    },
    {
      "bufferView": 0,
      "byteOffset": 11302632,
      "componentType": 5125,
      "count": 174339,
      "type": "SCALAR"
    }
  ],
  "asset": {
    "extras": {
      "author": "Riccardo Rocca (https://sketchfab.com/riccardo.rocca)",
      "license": "CC-BY-4.0 (http://creativecommons.org/licenses/by/4.0/)",
      "source": "https://sketchfab.com/3d-models/ulaca-houses-and-stone-quarry-ruins-9cab09120c894a8cb66c666da7baf006",
      "title": "Ulaca - Houses and stone quarry ruins"
    },
    "generator": "Sketchfab-12.68.0",
    "version": "2.0"
  },
  "bufferViews": [
    {
      "buffer": 0,
      "byteLength": 11999988,
      "name": "floatBufferViews",
      "target": 34963
    },
    {
      "buffer": 0,
      "byteLength": 5605784,
      "byteOffset": 11999988,
      "byteStride": 8,
      "name": "floatBufferViews",
      "target": 34962
    },
    {
      "buffer": 0,
      "byteLength": 16817352,
      "byteOffset": 17605772,
      "byteStride": 12,
      "name": "floatBufferViews",
      "target": 34962
    }
  ],
  "buffers": [
    {
      "byteLength": 34423124,
      "uri": "scene.bin"
    }
  ],
  "extensionsUsed": [
    "KHR_materials_unlit"
  ],
  "images": [
    {
      "uri": "textures/texture_material_baseColor.jpeg"
    }
  ],
  "materials": [
    {
      "doubleSided": true,
      "extensions": {
        "KHR_materials_unlit": {}
      },
      "name": "texture_material",
      "pbrMetallicRoughness": {
        "baseColorTexture": {
          "index": 0
        },
        "metallicFactor": 0.0
      }
    }
  ],
  "meshes": [
    {
      "name": "mesh_out_node_texture_material_0",
      "primitives": [
        {
          "attributes": {
            "NORMAL": 1,
            "POSITION": 0,
            "TEXCOORD_0": 2
          },
          "indices": 3,
          "material": 0,
          "mode": 4
        }
      ]
    },
    {
      "name": "mesh_out_node_texture_material_0",
      "primitives": [
        {
          "attributes": {
            "NORMAL": 5,
            "POSITION": 4,
            "TEXCOORD_0": 6
          },
          "indices": 7,
          "material": 0,
          "mode": 4
        }
      ]
    },
    {
      "name": "mesh_out_node_texture_material_0",
      "primitives": [
        {
          "attributes": {
            "NORMAL": 9,
            "POSITION": 8,
            "TEXCOORD_0": 10
          },
          "indices": 11,
          "material": 0,
          "mode": 4
        }
      ]
    },
    {
      "name": "mesh_out_node_texture_material_0",
      "primitives": [
        {
          "attributes": {
            "NORMAL": 13,
            "POSITION": 12,
            "TEXCOORD_0": 14
          },
          "indices": 15,
          "material": 0,
          "mode": 4
        }
      ]
    },
    {
      "name": "mesh_out_node_texture_material_0",
      "primitives": [
        {
          "attributes": {
            "NORMAL": 17,
            "POSITION": 16,
            "TEXCOORD_0": 18
          },
          "indices": 19,
          "material": 0,
          "mode": 4
        }
      ]
    },
    {
      "name": "mesh_out_node_texture_material_0",
      "primitives": [
        {
          "attributes": {
            "NORMAL": 21,
            "POSITION": 20,
            "TEXCOORD_0": 22
          },
          "indices": 23,
          "material": 0,
          "mode": 4
        }
      ]
    },
    {
      "name": "mesh_out_node_texture_material_0",
      "primitives": [
        {
          "attributes": {
            "NORMAL": 25,
            "POSITION": 24,
            "TEXCOORD_0": 26
          },
          "indices": 27,
          "material": 0,
          "mode": 4
        }
      ]
    },
    {
      "name": "mesh_out_node_texture_material_0",
      "primitives": [
        {
          "attributes": {
            "NORMAL": 29,
            "POSITION": 28,
            "TEXCOORD_0": 30
          },
          "indices": 31,
          "material": 0,
          "mode": 4
        }
      ]
    },
    {
      "name": "mesh_out_node_texture_material_0",
      "primitives": [
        {
          "attributes": {
            "NORMAL": 33,
            "POSITION": 32,
            "TEXCOORD_0": 34
          },
          "indices": 35,
          "material": 0,
          "mode": 4
        }
      ]
    },
    {
      "name": "mesh_out_node_texture_material_0",
      "primitives": [
        {
          "attributes": {
            "NORMAL": 37,
            "POSITION": 36,
            "TEXCOORD_0": 38
          },
          "indices": 39,
          "material": 0,
          "mode": 4
        }
      ]
    },
    {
      "name": "mesh_out_node_texture_material_0",
      "primitives": [
        {
          "attributes": {
            "NORMAL": 41,
            "POSITION": 40,
            "TEXCOORD_0": 42
          },
          "indices": 43,
          "material": 0,
          "mode": 4
        }
      ]
    }
  ],
  "nodes": [
    {
      "children": [
        1
      ],
      "matrix": [
        1.0,
        0.0,
        0.0,
        0.0,
        0.0,
        -2.220446049250313e-16,
        1.0,
        0.0,
        0.0,
        -1.0,
        -2.220446049250313e-16,
        0.0,
        0.0,
        48.449440002441406,
        -0.5693855285644424,
        1.0
      ],
      "name": "Sketchfab_model"
    },
    {
      "children": [
        2
      ],
      "matrix": [
        1.0,
        0.0,
        0.0,
        0.0,
        0.0,
        -1.0,
        0.0,
        0.0,
        0.0,
        0.0,
        -1.0,
        0.0,
        0.0,
        0.0,
        0.0,
        1.0
      ],
      "name": "c5d7ffab3d014aefb42296e0e098c9ea.fbx"
    },
    {
      "children": [
        3
      ],
      "name": "RootNode"
    },
    {
      "children": [
        4,
        5,
        6,
        7,
        8,
        9,
        10,
        11,
        12,
        13,
        14
      ],
      "name": "mesh_out_node"
    },
    {
      "mesh": 0,
      "name": "mesh_out_node_texture_material_0"
    },
    {
      "mesh": 1,
      "name": "mesh_out_node_texture_material_0"
    },
    {
      "mesh": 2,
      "name": "mesh_out_node_texture_material_0"
    },
    {
      "mesh": 3,
      "name": "mesh_out_node_texture_material_0"
    },
    {
      "mesh": 4,
      "name": "mesh_out_node_texture_material_0"
    },
    {
      "mesh": 5,
      "name": "mesh_out_node_texture_material_0"
    },
    {
      "mesh": 6,
      "name": "mesh_out_node_texture_material_0"
    },
    {
      "mesh": 7,
      "name": "mesh_out_node_texture_material_0"
    },
    {
      "mesh": 8,
      "name": "mesh_out_node_texture_material_0"
    },
    {
      "mesh": 9,
      "name": "mesh_out_node_texture_material_0"
    },
    {
      "mesh": 10,
      "name": "mesh_out_node_texture_material_0"
    }
  ],
  "samplers": [
    {
      "magFilter": 9729,
      "minFilter": 9987,
      "wrapS": 10497,
      "wrapT": 10497
    }
  ],
  "scene": 0,
  "scenes": [
    {
      "name": "Sketchfab_Scene",
      "nodes": [
        0
      ]
    }
  ],
  "textures": [
    {
      "sampler": 0,
      "source": 0
    }
  ]
}
